<?xml version="1.0" standalone="no"?>
<!DOCTYPE svg PUBLIC "-//W3C//DTD SVG 20010904//EN"
 "http://www.w3.org/TR/2001/REC-SVG-20010904/DTD/svg10.dtd">
<svg version="1.0" xmlns="http://www.w3.org/2000/svg"
 width="32px" height="32px" viewBox="0 0 64.000000 64.000000"
 preserveAspectRatio="xMidYMid meet">

<g transform="translate(0.000000,64.000000) scale(0.100000,-0.100000)"
fill="#ffffff" stroke="none">
<path d="M14 565 c-13 -33 4 -45 64 -45 32 0 63 5 69 11 7 7 19 9 27 6 14 -6
16 -32 16 -187 0 -164 2 -182 19 -199 12 -12 17 -27 14 -40 -7 -27 13 -51 43
-51 25 0 49 33 40 56 -4 11 12 14 95 14 88 0 100 -2 95 -16 -9 -24 12 -54 38
-54 31 0 45 18 44 58 l-1 32 -181 2 -181 3 -3 26 c-4 32 -1 33 217 50 191 16
192 17 199 121 8 131 16 124 -150 132 -239 11 -268 15 -278 41 -12 33 -64 55
-127 55 -38 0 -55 -4 -59 -15z m116 -10 c0 -11 -12 -15 -50 -15 -38 0 -50 4
-50 15 0 11 12 15 50 15 38 0 50 -4 50 -15z m423 -92 c48 -5 57 -9 57 -25 0
-18 -6 -19 -142 -12 l-143 7 3 -95 c3 -92 3 -96 -20 -102 -13 -3 -27 -6 -31
-6 -5 0 -7 47 -5 105 l3 105 -32 0 c-27 0 -33 4 -33 21 0 22 1 22 143 15 78
-4 168 -9 200 -13z m-305 -136 c3 -92 2 -97 -18 -97 -19 0 -20 6 -20 101 0 90
2 100 18 97 14 -3 17 -17 20 -101z m152 3 c0 -89 0 -90 -25 -90 -25 0 -25 1
-25 90 0 89 0 90 25 90 25 0 25 -1 25 -90z m80 0 l0 -80 -30 0 -30 0 0 80 0
80 30 0 30 0 0 -80z m58 3 c-3 -65 -6 -78 -20 -81 -16 -3 -18 6 -18 77 0 75 2
81 20 81 19 0 21 -5 18 -77z m63 67 c13 0 11 -114 -3 -128 -29 -29 -38 -13
-38 64 0 65 2 75 16 70 9 -3 20 -6 25 -6z m-316 -300 c0 -16 -6 -26 -18 -28
-19 -4 -32 20 -23 44 9 25 41 13 41 -16z m275 15 c10 -12 10 -18 0 -30 -16
-19 -39 -19 -46 0 -8 21 2 45 19 45 8 0 20 -7 27 -15z"/>
<path d="M303 453 c15 -2 39 -2 55 0 15 2 2 4 -28 4 -30 0 -43 -2 -27 -4z"/>
</g>
</svg>
